<svg version="1.1" xmlns="http://www.w3.org/2000/svg" xmlns:xlink="http://www.w3.org/1999/xlink">
	<symbol id="arraysource-icon" viewBox="0 0 222 222">
		<path fill="#049cdb" d="M222,212.6c0,5.2-4.2,9.4-9.4,9.4H9.4c-5.2,0-9.4-4.2-9.4-9.4V9.4
			C0,4.2,4.2,0,9.4,0h203.2c5.2,0,9.4,4.2,9.4,9.4V212.6z"/>
		<g>
			<path fill="#FFFFFF" d="M176,113.5c-6.9,0-13.2,0-19.7,0c0-1.8,0.1-3.3,0-4.9
				c-0.4-10.8-10.2-16.2-19.8-10.9c-2.5,1.4-4.7,3.3-7.1,4.6c-11.7,6.6-24.1,7.3-35.5,0.4c-7.8-4.7-15.4-7.2-24.3-6.4
				c-3.8,0.3-7.6,0.1-11.6,0.1c0-6.6,0-12.9,0-19.5c0.8-0.1,1.7-0.2,2.7-0.2c9.7,0,19.5,0,29.2,0c4.4,0,5.7-1.4,5.8-5.7
				c0-3.4,0-6.9,0-10.2c-6.4-1.4-6.5-1.7-6.1-7c0.1-2.2,1.1-3.1,3.2-3.1c12.2,0,24.4-0.1,36.6,0.1c1.1,0,2.9,1.9,3,3
				c0.2,2.2,1.3,5.2-2.2,6.2c-1,0.3-2.2,0.2-3.7,0.4c0,4.2-0.2,8.4,0.1,12.5c0.2,3,2.6,3.7,5.4,3.8c7,0.3,14.1,0.4,21,1.4
				c13.3,2,19.3,8.2,21.6,21.5C175.4,104.2,175.6,108.7,176,113.5z"/>
			<path fill="#FFFFFF" d="M149.1,19.2c-0.1,7.5-0.1,7.5-7.5,6.6c-6.7-0.8-13.4-1.7-20.1-2.3
				c-1.2-0.1-2.8,0.4-3.7,1.2c-4,3.6-9.2,3.6-13.4,0c-0.9-0.8-2.5-1.4-3.7-1.2c-7.3,0.8-14.7,1.7-22,2.8c-4.8,0.7-5.6,0.1-5.6-4.9
				c0.1-12.3-1-10.5,10.5-9.2c5.7,0.7,11.5,1.5,17.2,2.1c1,0.1,2.3-0.5,3-1.3c4.5-4.9,10.1-4.9,14.7,0c0.7,0.8,2.3,1.4,3.3,1.2
				c7.3-0.8,14.7-1.8,22-2.7c4.8-0.6,5.2-0.4,5.3,4.4C149.1,16.9,149.1,18,149.1,19.2z"/>
			<path fill="#FFFFFF" d="M166.2,132.1c-3.6,0-7.2-0.1-10.7,0c-2.4,0.1-3.4-0.9-3.5-3.2
				c0-0.1,0-0.2,0-0.4c0.2-12.4-1.3-10.3,10-10.5c4.8-0.1,9.6,0.1,14.4,0c2.7-0.1,3.7,1.1,3.8,3.7c0.6,10.3,0.6,10.3-9.5,10.3
				C169.2,132.1,167.7,132.1,166.2,132.1z"/>
			<path fill="#FFFFFF" d="M53.5,86.8c0,4.2-0.1,8.4,0,12.5c0.1,2.7-1.3,3.8-3.8,3.8
				c-2.4,0-4.1-0.9-4.1-3.6c0-8.6,0.1-17.2,0.1-25.8c0-2.8,1.7-3.1,3.9-3.1c2.3,0,3.8,0.5,3.8,3.2C53.4,78.3,53.5,82.5,53.5,86.8z"/>
			<path fill="#FFFFFF" d="M106.2,30.6c3.5,0,6.5,0,9.8,0c0,3.2,0,6.5,0,9.7
				c5.5,1.7,5.5,1.7,5.1,6.4c-6.6,0-13.3,0-20,0c-0.5-4.7-0.3-5,5.1-6.2C106.2,37.3,106.2,33.9,106.2,30.6z"/>
		</g>
		<text transform="matrix(1 0 0 1 36.6772 152.2725)"><tspan x="0" y="0" fill="#FFFFFF" font-family="'HelveticaNeueLTPro-Roman'" font-size="45.1375">1  2</tspan><tspan x="0" y="54.2" fill="#FFFFFF" font-family="'HelveticaNeueLTPro-Roman'" font-size="45.1375">3  4</tspan></text>
		<polyline fill="none" stroke="#FFFFFF" stroke-width="3" stroke-miterlimit="10" points="32.7,114 23,114 23,214.7 32.7,214.7 "/>
		<polyline fill="none" stroke="#FFFFFF" stroke-width="3" stroke-miterlimit="10" points="115.8,214.7 125.4,214.7 125.4,114 
			115.8,114 "/>
	</symbol>
</svg>
