<svg version="1.1" xmlns="http://www.w3.org/2000/svg" xmlns:xlink="http://www.w3.org/1999/xlink">
	<symbol id="scalarsink-icon" viewBox="0 0 223.4 222">
		<path fill="#46a546" d="M223.4,212.6c0,5.2-4.2,9.4-9.4,9.4H10.7c-5.2,0-9.4-4.2-9.4-9.4V9.4
			C1.4,4.2,5.6,0,10.7,0H214c5.2,0,9.4,4.2,9.4,9.4V212.6z"/>
		<path fill="#FFFFFF" d="M64.3,185.4c16.6-3.1,30.7-10.7,43.2-21.5c1.7-1.4,4.5-1.6,6.8-2.4
			c5.8-2.1,9.5-5.9,8.3-12.4c-1.1-5.5-5-8.7-10.7-8.3c-6,0.4-9.4,4.1-10,10.2c-0.2,1.8-0.1,4-1,5.4c-10.2,16.2-38.5,25-56.1,17.7
			c-13.7-5.7-20.3-17.5-15-31.2c4.1-10.6,11.2-20,16.5-30.1c1.7-3.3,3.4-7.3,3.1-10.8c-0.9-9.7,3.7-16.7,11.4-20.2
			C72.7,76.4,85.2,71.4,98,69.1c24.9-4.5,50-3.2,74.1,5.6c5.6,2,11,5.2,15.9,8.6c5.9,4.2,9.9,10.2,8.6,17.7
			c-5.2,31.7-10.4,63.5-16.5,95c-0.8,4-6.3,8.6-10.7,10.2c-30.8,11.1-62,11-92.9,0.2C67.1,203.2,63.3,196.1,64.3,185.4z M123.9,120.4
			c15.3-1.7,30.4-5.1,45.4-9.9c4.7-1.5,10.3-8,10.6-12.6c0.2-3.8-6.6-8.1-10.5-12c-1.1-1.1-2.9-1.4-4.5-2c-28.6-9.4-57.2-9.3-85.6,0.6
			c-6.5,2.3-13.9,5.7-14.1,13.4c-0.2,8.2,7.3,12.3,14.1,14.1C93.5,115.8,108.2,118.7,123.9,120.4z M52.8,122.1
			c-8.3,11.1-16.1,19.8-11.5,32.2c2.9,7.8,10,9.7,18.6,10.3C57.6,150.5,55.4,137.4,52.8,122.1z"/>
		<text transform="matrix(0.849 0.5283 -0.5283 0.849 6.6704 49.0063)" fill="#FFFFFF" font-size="59">1.2345</text>
	</symbol>
</svg>
