<svg version="1.1" xmlns="http://www.w3.org/2000/svg" xmlns:xlink="http://www.w3.org/1999/xlink" xml:space="preserve">
	<symbol id="scalarsource-icon" viewBox="0 0 222 222">
		<path fill="#049cdb" d="M222,212.6c0,5.2-4.2,9.4-9.4,9.4H9.4c-5.2,0-9.4-4.2-9.4-9.4V9.4
			C0,4.2,4.2,0,9.4,0h203.2c5.2,0,9.4,4.2,9.4,9.4V212.6z"/>
		<g>
			<path fill="#FFFFFF" d="M196.2,153.8c-9.4,0-17.8,0-26.7,0c0-2.4,0.1-4.5,0-6.6
				c-0.6-14.6-13.8-21.9-26.8-14.7c-3.3,1.9-6.3,4.4-9.6,6.3c-15.9,8.9-32.6,9.9-48,0.6c-10.5-6.4-20.8-9.7-32.8-8.6
				c-5.1,0.4-10.2,0.1-15.6,0.1c0-9,0-17.4,0-26.3c1.1-0.1,2.4-0.3,3.6-0.3c13.2,0,26.3,0,39.5,0c5.9,0,7.7-1.8,7.8-7.7
				c0-4.6,0-9.3,0-13.8c-8.6-1.9-8.8-2.3-8.3-9.5c0.2-3,1.6-4.2,4.4-4.2c16.5,0,33-0.1,49.5,0.2c1.5,0,3.9,2.5,4.1,4.1
				c0.3,2.9,1.8,7-2.9,8.4c-1.4,0.4-3,0.3-5,0.5c0,5.7-0.3,11.3,0.1,16.9c0.3,4,3.5,5,7.3,5.2c9.5,0.4,19,0.5,28.3,1.9
				c17.9,2.7,26.1,11.1,29.2,29.1C195.2,141.2,195.5,147.4,196.2,153.8z"/>
			<path fill="#FFFFFF" d="M159.7,26.3c-0.1,10.1-0.1,10.1-10.1,8.9
				c-9.1-1.1-18.1-2.3-27.2-3.1c-1.6-0.2-3.8,0.6-5,1.7c-5.4,4.9-12.5,4.9-18.1,0c-1.3-1.1-3.4-1.8-5.1-1.7
				c-9.9,1.1-19.8,2.4-29.7,3.7c-6.5,0.9-7.6,0.1-7.6-6.6c0.1-16.6-1.3-14.2,14.2-12.4c7.8,0.9,15.5,2.1,23.3,2.9
				c1.3,0.1,3.1-0.7,4-1.7c6.1-6.6,13.6-6.6,19.9,0c1,1.1,3.1,1.8,4.5,1.7c9.9-1.1,19.8-2.4,29.7-3.7c6.5-0.8,7-0.5,7.1,5.9
				C159.7,23.3,159.7,24.8,159.7,26.3z"/>
			<path fill="#FFFFFF" d="M182.9,179c-4.8,0-9.7-0.2-14.5,0.1c-3.2,0.1-4.6-1.3-4.7-4.3
				c0-0.2,0-0.3,0-0.5c0.3-16.8-1.7-14,13.5-14.2c6.5-0.1,13,0.1,19.5-0.1c3.7-0.1,4.9,1.5,5.1,5c0.8,14,0.8,14-12.9,13.9
				C186.9,179,184.9,179,182.9,179z"/>
			<path fill="#FFFFFF" d="M30.5,117.8c0,5.6-0.1,11.3,0,16.9c0.1,3.7-1.7,5.1-5.1,5.2
				c-3.3,0.1-5.5-1.2-5.5-4.9c0-11.6,0.1-23.2,0.1-34.8c0-3.8,2.4-4.1,5.3-4.2c3.1,0,5.2,0.7,5.2,4.3C30.5,106.2,30.5,112,30.5,117.8z
				"/>
			<path fill="#FFFFFF" d="M101.8,41.8c4.7,0,8.8,0,13.2,0c0,4.3,0,8.7,0,13.1
				c7.4,2.4,7.4,2.4,6.9,8.6c-9,0-18,0-27,0c-0.7-6.3-0.4-6.8,6.8-8.3C101.8,50.8,101.8,46.2,101.8,41.8z"/>
		</g>
		<text transform="matrix(1 0 0 1 19.9775 191.9385)" fill="#FFFFFF" font-size="45.1375">1.2345</text>
	</symbol>
</svg>
